<?xml version="1.0" encoding="iso-8859-1"?>
<!-- Generator: Adobe Illustrator 19.0.0, SVG Export Plug-In . SVG Version: 6.00 Build 0)  -->
<svg version="1.1" id="Capa_1" xmlns="http://www.w3.org/2000/svg" xmlns:xlink="http://www.w3.org/1999/xlink" x="0px" y="0px"
	 viewBox="0 0 436.466 436.466" style="enable-background:new 0 0 436.466 436.466;" xml:space="preserve">
<g>
	<g>
		<path d="M393.801,271.757l0.04,0.16l-171.44-79.64v-33.56c0,0,0,0,0-0.2c-0.022-2.995-2.445-5.418-5.44-5.44
			c-17.673,0-32-14.327-32-32s14.327-32,32-32c17.673,0,32,14.327,32,32c0,3.004,2.436,5.44,5.44,5.44c3.004,0,5.44-2.436,5.44-5.44
			c0.03-23.682-19.144-42.904-42.826-42.933c-23.682-0.03-42.904,19.144-42.934,42.826c-0.027,21.599,16.015,39.847,37.44,42.587
			v28.72l-171.4,79.64c-23.839,1.746-41.749,22.486-40.004,46.325c1.601,21.867,19.301,39.082,41.204,40.075h351.24
			c23.903,0.342,43.558-18.757,43.9-42.66S417.704,272.1,393.801,271.757z M392.561,347.677l0.04-0.08H41.321
			c-17.905,0-32.42-14.515-32.42-32.42s14.515-32.42,32.42-32.42c0.788-0.009,1.566-0.186,2.28-0.52l173.36-80.52l173.32,80.6
			c0.714,0.334,1.492,0.511,2.28,0.52c17.905,0,32.42,14.515,32.42,32.42S410.466,347.677,392.561,347.677z"/>
	</g>
</g>
<g>
</g>
<g>
</g>
<g>
</g>
<g>
</g>
<g>
</g>
<g>
</g>
<g>
</g>
<g>
</g>
<g>
</g>
<g>
</g>
<g>
</g>
<g>
</g>
<g>
</g>
<g>
</g>
<g>
</g>
</svg>
